PathFileType	4	(X/Y/Z)	Patient4_TMGait_0pt2_02_left_21.trc.trc
DataRate	CameraRate	NumFrames	NumMarkers	Units	OrigDataRate	OrigDataStartFrame	OrigNumFrames
47.781569965870	47.781569965870	4	33	mm	47.781569965870	71	       141
Frame#	Time	R.Midfoot.Superior			Sacral			L.Shoulder			Chest			R.Shoulder			Neck			R.ASIS			L.ASIS			R.Thigh.Superior			R.Thigh.Lateral			R.Thigh.Inferior			R.Patella			L.Thigh.Superior			L.Thigh.Lateral			L.Thigh.Inferior			L.Patella			L.Shank.Superior			L.Shank.Lateral			L.Shank.Inferior			R.Shank.Superior			R.Shank.Lateral			R.Shank.Inferior			R.Heel			R.Midfoot.Lateral			R.Toe			L.Heel			L.Midfoot.Lateral			L.Midfoot.Superior			L.Toe			L.Elbow			L.Wrist			R.Elbow			R.Wrist			
		X1	Y1	Z1	X2	Y2	Z2	X3	Y3	Z3	X4	Y4	Z4	X5	Y5	Z5	X6	Y6	Z6	X7	Y7	Z7	X8	Y8	Z8	X9	Y9	Z9	X10	Y10	Z10	X11	Y11	Z11	X12	Y12	Z12	X13	Y13	Z13	X14	Y14	Z14	X15	Y15	Z15	X16	Y16	Z16	X17	Y17	Z17	X18	Y18	Z18	X19	Y19	Z19	X20	Y20	Z20	X21	Y21	Z21	X22	Y22	Z22	X23	Y23	Z23	X24	Y24	Z24	X25	Y25	Z25	X26	Y26	Z26	X27	Y27	Z27	X28	Y28	Z28	X29	Y29	Z29	X30	Y30	Z30	X31	Y31	Z31	X32	Y32	Z32	X33	Y33	Z33	

71	49.015000000000	1311.255577072402	116.448389833826	622.555257850810	952.739881953049	1004.093943147056	394.941281593329	1176.039236914834	1443.207084283216	280.342887689347	1224.349722826597	1365.175160780603	459.795057482337	1094.535318106788	1433.568845886931	603.665012512153	1111.063719412467	1496.562129474258	429.120782858328	1153.195583281752	942.671874894763	563.279181925850	1197.140436830609	965.630411000656	290.766868360298	1232.064742424244	768.616030550547	541.265054985688	1175.458720459850	650.239574354255	611.488627993700	1266.317932092691	607.556108370859	539.626672869408	1293.151191405232	520.447326641827	560.601963918073	1219.506240631858	741.901152495915	331.370996085552	1132.964462094187	627.049557364404	256.284057122492	1192.813972064499	548.362434385837	338.741750425698	1185.218854417120	480.661108388734	348.853846397063	1153.302496967182	408.291830574371	337.628234598374	1061.971883279936	298.073279239650	281.020812139671	1094.701396082028	187.926077248863	363.101712613382	1267.682404301424	429.970422680697	575.311542608287	1200.390237915039	328.383733934455	647.443933266013	1257.497108722359	230.389936327317	601.880194504919	1142.491222348356	49.798385372393	589.146904465336	1230.081000886552	43.716815409656	658.337967283401	1434.942453153534	75.083403640378	642.907374084026	955.176684050572	38.172922817994	402.597424833509	1029.800499655583	35.642633609060	322.295960649821	1112.766607622054	96.486923601017	351.345027727687	1241.099775957890	47.492590505284	323.338639994947	1349.888137614498	1182.145700619721	115.346942588866	1605.037683444895	1134.536089215896	152.186325829401	910.385980834665	1130.455365067024	657.929300839522	853.116393430972	875.083781510853	650.502648915555	
72	49.035928571429	1316.091036894579	114.636874708505	621.979965981260	954.124369545447	1004.322154369356	396.295091189407	1179.838446354670	1442.003743208683	283.301667790590	1225.524820634972	1364.898245778002	463.812521650114	1094.105333404020	1434.779325688210	605.466718322974	1112.830677928471	1496.418306737588	430.856443190135	1151.966366301684	941.731608093313	567.670546227320	1199.713734769745	965.266939161034	295.722898565909	1229.424287266091	766.578887778426	546.538756415764	1169.695008926891	648.041445510587	614.294306495398	1261.698537971428	605.502960061368	544.092232602564	1286.800674609187	519.369680261455	563.646883495750	1218.922979063761	740.743475529677	334.573133933050	1131.111305613408	627.528484327732	257.747817849278	1188.986707306467	547.636160984833	340.070380327225	1180.311515753009	480.345967685102	349.831232471889	1148.790469869683	408.397470063868	338.351482883432	1057.817141321505	298.208172575745	281.204351111183	1090.367821574059	187.976968441644	363.268099908323	1264.035336240740	428.587458417641	577.463469705002	1198.861652473312	324.640182913575	648.203819974142	1259.103472531074	228.540380421804	602.218531720310	1148.457212101296	46.585786378621	586.964915729374	1235.588452889455	40.818250165389	656.621865300860	1440.000250916215	74.436739082007	642.418743346458	950.936393790245	38.141045623388	402.519268604600	1025.560363929033	35.570908815216	322.249829857893	1108.493648461239	96.455550645097	351.367145403473	1236.865220837922	47.535282771942	323.405979688614	1357.833276489063	1184.157024374068	120.106541251663	1614.433732741899	1147.299553148517	158.190149255318	906.993447070055	1134.023842535185	657.873627366540	849.456451132867	878.602042006415	649.158553588995	
73	49.056857142857	1318.134064518512	112.661235060666	621.101945324023	955.847394900457	1004.150963908943	398.236056819139	1183.275578585676	1440.555869352517	286.464079281703	1226.850817631557	1364.454845529268	467.901356210558	1094.104366228634	1435.612764578965	607.652951382916	1114.622625866610	1496.002804799397	432.942509007196	1151.420654850800	940.545682525340	572.143106661291	1202.460300546806	964.731323592329	300.778907938409	1227.666906302994	764.222844312627	551.536527634878	1165.043529954128	645.582209794872	616.779353548602	1258.075592100582	603.202934210877	548.002135525900	1281.311226314366	517.739213317219	566.149072299123	1218.846821698358	739.475062253738	337.767064161254	1129.713918530083	627.822149427998	259.501619770728	1185.836033198097	546.800217048650	341.539058938194	1176.168321667328	479.856118393717	350.969345433605	1144.867609695448	408.330116804286	339.257777318112	1054.002500220535	298.375232353029	281.578492091275	1086.227837087284	187.935963209149	363.496784190429	1260.571275409092	426.773261220898	579.218566815843	1196.690460164636	321.226138000400	648.548232688549	1259.092438218917	226.608302140352	602.177872444013	1151.197648965173	44.597763739528	584.489858344048	1237.652794233911	38.844677946398	654.862153496186	1441.787378380877	72.695908117469	642.169719133307	946.703892082381	38.117378997751	402.451005005997	1021.328693204841	35.503023093401	322.211266187349	1104.254932273464	96.413493610122	351.393236777164	1232.649288935798	47.525017813629	323.450326515919	1364.800808992070	1185.120310154596	125.348340223921	1622.374565347304	1158.235110480089	164.535058449232	905.679280338730	1136.137143806692	658.715323573870	849.106332758820	880.349043568928	649.002200736906	
74	49.077785714286	1317.881823864685	110.531034546344	619.948034269411	957.924081093775	1003.695313162807	400.750353282957	1186.378650254419	1439.007857232012	289.833880773240	1228.352096093565	1363.955424069072	472.068808552696	1094.525032723340	1436.156695863918	610.242678832466	1116.433526917890	1495.417355052452	435.394544484824	1151.604118857013	939.261637420588	576.675133860032	1205.398260737392	964.110609571556	305.895954301267	1226.830906324962	761.677962267795	556.199335909704	1161.642111306999	643.018279394841	619.029191035233	1255.502025353273	600.774770375458	551.351985633034	1276.847241722826	515.728085259942	568.148624237609	1219.229992048349	738.134789443211	340.985377835646	1128.710350529599	627.977012812786	261.566660266123	1183.288443079297	545.890945269107	343.188367375838	1172.707642390295	479.226159413104	352.302399241938	1141.464995111771	408.134080121028	340.368701540285	1050.475156839938	298.605257920080	282.157508352443	1082.248618476164	187.831578761206	363.792114427255	1257.506144379693	424.658827731030	580.612729850704	1194.249715438511	318.140845462468	648.656611598789	1257.860019798041	224.569780313534	601.834469797205	1151.199458570608	43.491381339134	582.030166191844	1236.909610389747	37.593883074604	653.230008771856	1440.985253372275	70.072780909891	642.006881774938	942.478975638660	38.108358738957	402.386536765107	1017.106587376595	35.442994270005	322.179785801881	1100.052476197988	96.365582505075	351.416776964112	1228.451273698026	47.458253267595	323.471827279191	1370.805584946749	1185.164448217920	130.971709821602	1628.947338444728	1167.319696234074	171.131216074324	906.263485218368	1136.944460903947	660.528326874283	851.746045958446	880.526263190327	650.164486604776	
